<svg xmlns="http://www.w3.org/2000/svg" width="60" height="60" fill="none" viewBox="0 0 60 60"><g stroke-linecap="round" stroke-linejoin="round"><path fill="#fff" stroke="#1D1D1B" stroke-width="1.3" d="M40.955 7.047 11.49 4.999 7.916 56.434l41.749 2.902 2.721-39.15z"/><path fill="#fff" stroke="#1D1D1B" stroke-width="1.3" d="m40.1 19.333 12.286.853L40.955 7.047z"/><path fill="#1D1D1B" stroke="#1D1D1B" stroke-width="1.3" d="m12.563.514-12 .595.595 12 12-.594z"/><path fill="#fff" stroke="#1D1D1B" stroke-width="1.3" d="m13.143 12.21-12 .595.595 12 12-.594z"/><path fill="#fff" stroke="#1D1D1B" stroke-width="1.3" d="m13.724 23.906-12 .595.595 12 12-.594z"/><path fill="#fff" stroke="#1D1D1B" stroke-width="1.3" d="m10.369 28.139-3.635-1.696-2.37 5.082 3.634 1.695z"/><path stroke="#1D1D1B" stroke-width="1.3" d="m8.883 31.324-3.635-1.695M7.999 33.22l3.885-.193"/><path fill="#fff" stroke="#1D1D1B" stroke-width="1.3" d="m8.823 14.657-2.51 4.268 2.818 1.657 2.51-4.268z"/><path fill="#1D1D1B" stroke="#1D1D1B" stroke-width="1.3" d="M9.128 20.59 6.31 18.932l.178 2.105.711.418z"/><path fill="#1D1D1B" stroke="#1D1D1B" stroke-width="1.3" d="m6.827 22.091-.987.049.65-1.103.71.418z"/><path stroke="#1D1D1B" stroke-width="1.3" d="m3.321 22.265 2.519-.125"/><path fill="#1D1D1B" stroke="#fff" stroke-width="1.3" d="M8.508 9.07 7.04 10.21l-.245-1.841 2.265-5.523 1.712.703z"/><path stroke="#fff" stroke-width="1.3" d="M2.36 9.188a1.06 1.06 0 0 1 .76-.333.93.93 0 0 1 .62.482c.123.242.274.47.45.675a1.79 1.79 0 0 0 1.371.414"/><path fill="#fff" stroke="#1D1D1B" stroke-width="1.3" d="m47.379 43.015-5.927 1.794 1.434-6.024z"/><path fill="#1D1D1B" stroke="#1D1D1B" stroke-width="1.3" d="M54.923 26 42.886 38.784l4.493 4.23 12.036-12.785z"/><path stroke="#EF4444" stroke-width="2.7" d="M38.673 46.5c-5.342 4.718-18.487 9.264-22.137.409-3.844-9.326 7.476-20.615 17.716-21.934 10.086-1.301 7.656 6.663 2.85 9.334"/><path stroke="#EF4444" stroke-width="2.7" d="M22.067 24.103a86.3 86.3 0 0 1 4.997 14.114M27.835 41.874l.184 1.425"/></g></svg>