<svg xmlns="http://www.w3.org/2000/svg" width="80" height="80" fill="none"><g clip-path="url(#a)"><path fill="#fff" d="M21.16 33.6.76 37l5.91 35.63 28.93-4.8-4.51-27.13z"/><path fill="#1d1d1b" d="M6.67 73.38a.75.75 0 0 1-.74-.63L.01 37.12a.8.8 0 0 1 .13-.56.8.8 0 0 1 .49-.3l20.41-3.4a.8.8 0 0 1 .56.13l9.93 7.1a.8.8 0 0 1 .3.5l4.5 27.11a.75.75 0 0 1-.61.87L6.8 73.36zM1.62 37.62l5.67 34.15 27.44-4.56-4.33-26.08-9.42-6.73z"/><path fill="#fff" d="m22.58 42.12 8.5-1.42-9.92-7.1z"/><path fill="#1d1d1b" d="M22.58 42.87a.75.75 0 0 1-.74-.63l-1.42-8.51a.75.75 0 0 1 1.18-.74l9.93 7.1a.75.75 0 0 1-.32 1.36l-8.51 1.4zm-.38-7.6 1 5.98 5.98-1z"/><g fill="#1d1d1b"><path d="M21.24 52.63 1.62 55.9l1.67 10.06L22.9 62.7z"/><path d="M3.29 66.7a.75.75 0 0 1-.74-.63L.88 56.02a.75.75 0 0 1 .61-.87l19.62-3.26a.76.76 0 0 1 .87.62l1.67 10.06a.75.75 0 0 1-.62.86L3.4 66.7zm-.81-10.19 1.43 8.58 18.13-3.01-1.42-8.58z"/></g><path fill="#fff" d="m7 61.2.35 2.13-1.22.2-1.01-6.07 2.06-.34a2 2 0 0 1 1.53.32 2 2 0 0 1 .78 1.36 2 2 0 0 1-.3 1.5 2 2 0 0 1-1.38.76zm-.17-1.03.84-.14a.7.7 0 0 0 .5-.32q.17-.33.08-.7a1.2 1.2 0 0 0-.31-.69.6.6 0 0 0-.57-.19l-.86.15zm4.15 2.55-1-6.06 1.6-.27a2.2 2.2 0 0 1 1.8.4c.53.43.87 1.05.96 1.73l.16.99a2.7 2.7 0 0 1-.32 1.98 2.3 2.3 0 0 1-1.63.97zm.39-5.25.67 4.03.37-.06a1 1 0 0 0 .8-.46 2 2 0 0 0 .08-1.16l-.17-1.06a2 2 0 0 0-.44-1.15 1 1 0 0 0-.87-.21zm7.15 1.46-1.9.31.41 2.48-1.22.2-1.01-6.07 3.36-.55.17 1.02-2.13.35.25 1.55 1.9-.31z"/><g fill="#1d1d1b"><path d="M12.12 24.6a11.5 11.5 0 0 1 1-7.28c2.62-4.7 8.27-8.23 16.43-5.29.7-.08.92-.55.74-1.31-5.59-3.68-16.82-3.46-21.18 4.36A15.3 15.3 0 0 0 8.5 28.2z"/><path d="M8.49 28.96a.8.8 0 0 1-.7-.48 16 16 0 0 1 .67-13.77 13.7 13.7 0 0 1 8.95-6.54A17.6 17.6 0 0 1 30.7 10.1q.25.16.32.46a2 2 0 0 1-.2 1.57 1.6 1.6 0 0 1-1.18.66 1 1 0 0 1-.35-.04c-9.86-3.56-14.37 2.88-15.51 4.94a10.7 10.7 0 0 0-.92 6.8.8.8 0 0 1-.21.66L9 28.74a.8.8 0 0 1-.52.22m13.24-19.8a17 17 0 0 0-3.96.47 12.2 12.2 0 0 0-8 5.81 14.3 14.3 0 0 0-.98 11.4l2.53-2.5a12 12 0 0 1 1.14-7.39c2.64-4.74 8.53-8.7 17.13-5.7v-.08a15.5 15.5 0 0 0-7.86-2"/><path d="m31 7.37-3.68 7.15 4.93-1.97z"/><path d="M27.32 15.27a.75.75 0 0 1-.67-1.1l3.69-7.14a.75.75 0 0 1 1.4.17l1.24 5.17a.75.75 0 0 1-.45.88l-4.93 1.97a1 1 0 0 1-.28.05m3.43-5.76-1.84 3.57 2.45-.99z"/></g><path fill="#fff" d="M40.46 8.6 29.45 56.4l38.79 8.93 11-47.79z"/><path fill="#1d1d1b" d="m68.24 66.08-.17-.02-38.79-8.93a.75.75 0 0 1-.57-.9l11.02-47.8a.8.8 0 0 1 .6-.57 1 1 0 0 1 .3.01l38.79 8.94a.75.75 0 0 1 .56.9l-11 47.79a.75.75 0 0 1-.74.58m-37.9-10.25 37.33 8.6L78.35 18.1 41.02 9.5z"/><g fill="#e78637"><path d="m69.48 26-35.35-8.15-3.76 16.32 35.35 8.14z"/><path d="m65.72 43.06-.17-.02L30.2 34.9a.75.75 0 0 1-.56-.9l3.76-16.32a.75.75 0 0 1 .9-.56l35.35 8.14a.75.75 0 0 1 .56.9l-3.76 16.32a.75.75 0 0 1-.73.58m-34.45-9.45 33.89 7.8 3.42-14.85-33.89-7.81z"/></g><g fill="#fff"><path fill-rule="evenodd" d="M41.5 21.65q1.41.3 2.3 1.04.9.73 1.22 1.75.33 1.03.06 2.2-.28 1.17-1.01 1.92-.74.75-1.86 1t-2.53-.05l-2.2-.48-1 4.36-2.48-.54 2.83-12.22zm.64 2.5q-.38-.38-1.1-.53l-2.2-.48-.9 3.93 2.2.47q.7.16 1.2.02t.81-.53.43-.92q.13-.55.03-1.06a1.7 1.7 0 0 0-.47-.9m9.9-.22q1.41.3 2.3 1.04.9.73 1.22 1.76.32 1.02.05 2.18-.27 1.19-1 1.93-.74.75-1.86 1t-2.53-.05l-2.2-.48-1 4.36-2.48-.54 2.83-12.21zm.63 2.5q-.37-.38-1.08-.53l-2.2-.48-.91 3.93 2.2.48q.7.15 1.2.01t.81-.53q.3-.38.43-.92a3 3 0 0 0 .03-1.06 1.7 1.7 0 0 0-.48-.9" clip-rule="evenodd"/><path d="m66.97 27.16-.46 1.97-3.7-.8-2.37 10.25-2.46-.54 2.37-10.24-3.63-.79.46-1.97z"/></g><rect width="4.44" height="7.41" x="35.19" y="45.97" fill="#9fa8b5" rx=".4" transform="rotate(14 35.19 45.97)"/><rect width="4.44" height="10.37" x="41.66" y="44.52" fill="#9fa8b5" rx=".4" transform="rotate(14 41.66 44.52)"/><rect width="4.44" height="13.33" x="48.12" y="43.08" fill="#9fa8b5" rx=".4" transform="rotate(14 48.12 43.08)"/><rect width="20" height="2.22" x="32.54" y="52.94" fill="#1d1d1b" rx=".4" transform="rotate(14 32.54 52.94)"/></g><defs><clipPath id="a"><path fill="#fff" d="M0 0h80v80H0z"/></clipPath></defs></svg>