<svg xmlns="http://www.w3.org/2000/svg" width="80" height="80" fill="none" viewBox="0 0 80 80"><g clip-path="url(#a)"><path fill="#1d1d1b" d="m44.045 23.136.579 9.324-.915.057a14.7 14.7 0 0 0-2.092-4.526 6.94 6.94 0 0 0-2.857-2.079 8.7 8.7 0 0 0-3.408-.248l-2.564.16L34.436 52.4a10.9 10.9 0 0 0 .5 3.284c.28.481.705.861 1.214 1.086.742.32 1.553.44 2.356.351l1.14-.07.06.938L21.67 59.1l-.058-.938 1.142-.071a4.77 4.77 0 0 0 2.38-.685c.458-.307.798-.76.966-1.284.193-1.062.22-2.148.082-3.218l-1.65-26.568-2.491.154q-3.48.216-4.963 1.787a9.77 9.77 0 0 0-2.43 6.043l-.965.06-.583-9.324z"/><path fill="#3b82f6" d="M52.24 60.235a.75.75 0 0 1-.749-.7l-2.5-40.33a.754.754 0 0 1 1.426-.385q.066.136.074.285l2.5 40.33a.753.753 0 0 1-.7.8z"/><path fill="#fff" d="m7.163 14.598-6.412.398.398 6.412 6.412-.398z"/><path fill="#1d1d1b" d="M1.149 22.159a.753.753 0 0 1-.75-.7l-.4-6.416a.75.75 0 0 1 .706-.8l6.41-.4a.76.76 0 0 1 .8.7l.4 6.411a.754.754 0 0 1-.7.8l-6.41.4zm.4-6.459.3 4.911 4.912-.3-.302-4.911z"/><path fill="#fff" d="m10.158 62.855-6.412.398.398 6.412 6.412-.398z"/><path fill="#1d1d1b" d="M4.144 70.416a.75.75 0 0 1-.75-.7L3 63.3a.75.75 0 0 1 .7-.8l6.41-.4a.75.75 0 0 1 .8.7l.4 6.412a.754.754 0 0 1-.7.8l-6.41.4zm.4-6.46.305 4.912 4.912-.3-.3-4.911z"/><path fill="#fff" d="m78.851 58.592-6.412.398.398 6.411 6.412-.398z"/><path fill="#1d1d1b" d="M72.837 66.153a.753.753 0 0 1-.75-.705l-.4-6.412a.75.75 0 0 1 .7-.8l6.41-.4a.753.753 0 0 1 .801.7l.4 6.412a.754.754 0 0 1-.7.8l-6.411.4zm.4-6.459.3 4.911 4.912-.305-.3-4.91z"/><path fill="#fff" d="m75.857 10.336-6.411.398.397 6.411 6.412-.398z"/><path fill="#1d1d1b" d="M69.842 17.9a.75.75 0 0 1-.75-.7l-.4-6.411a.753.753 0 0 1 .7-.8l6.411-.4a.74.74 0 0 1 .8.7l.397 6.41a.753.753 0 0 1-.7.8l-6.411.4zm.4-6.46.305 4.912 4.912-.3-.306-4.912zm-59.51 6.938a.753.753 0 0 1-.046-1.5l3-.185a.74.74 0 0 1 .8.7.753.753 0 0 1-.7.8l-3 .186zm7.5-.466a.752.752 0 0 1-.046-1.5l3-.186a.744.744 0 0 1 .8.7.754.754 0 0 1-.7.8l-3 .185zm7.5-.464a.753.753 0 0 1-.046-1.5l3-.186a.737.737 0 0 1 .8.7.754.754 0 0 1-.7.8l-3 .186zm7.5-.466a.752.752 0 0 1-.046-1.5l3-.186a.74.74 0 0 1 .8.7.753.753 0 0 1-.7.8l-3 .186zm7.5-.465a.752.752 0 0 1-.046-1.5l3-.187a.75.75 0 1 1 .093 1.5l-3 .186zm7.5-.465a.753.753 0 0 1-.045-1.5l3-.186a.752.752 0 1 1 .092 1.5l-3 .186zm7.5-.466a.752.752 0 0 1-.046-1.5l3-.186a.76.76 0 0 1 .8.7.75.75 0 0 1-.7.8l-3 .186zm7.5-.464a.753.753 0 0 1-.045-1.5l3-.186a.752.752 0 1 1 .092 1.5l-3 .186zM13.728 66.635a.75.75 0 0 1-.046-1.5l3-.186a.743.743 0 0 1 .8.7.75.75 0 0 1-.7.8l-3 .186zm7.5-.465a.752.752 0 0 1-.046-1.5l3-.186a.737.737 0 0 1 .8.7.753.753 0 0 1-.7.8l-3 .186zm7.5-.465a.752.752 0 0 1-.046-1.5l3-.187a.74.74 0 0 1 .8.7.753.753 0 0 1-.7.8l-3 .187zm7.5-.466a.751.751 0 0 1-.046-1.5l3-.186a.74.74 0 0 1 .8.7.753.753 0 0 1-.7.8l-3 .186zm7.5-.465a.752.752 0 0 1-.045-1.5l3-.186a.752.752 0 0 1 .092 1.5l-3 .186zm7.5-.466a.752.752 0 0 1-.045-1.5l3-.185a.75.75 0 1 1 .092 1.5l-3 .186zm7.5-.465a.75.75 0 0 1-.046-1.5l3-.187a.751.751 0 0 1 .094 1.5l-3 .186zm7.5-.465a.752.752 0 0 1-.045-1.5l3-.186a.752.752 0 0 1 .092 1.5l-3 .186zm9.136-8.353a.753.753 0 0 1-.75-.706l-.185-3a.752.752 0 0 1 .992-.764.74.74 0 0 1 .508.664l.186 3a.753.753 0 0 1-.7.8zm-.466-7.5a.75.75 0 0 1-.749-.7l-.186-3a.752.752 0 0 1 1.5-.094l.185 3a.75.75 0 0 1-.7.8zm-.464-7.5a.75.75 0 0 1-.75-.705l-.187-3a.752.752 0 0 1 1.5-.094l.187 3a.754.754 0 0 1-.7.8zm-.466-7.5a.75.75 0 0 1-.749-.705l-.186-3a.75.75 0 0 1 .7-.8.74.74 0 0 1 .8.7l.186 3a.75.75 0 0 1-.7.8zm-.466-7.5a.75.75 0 0 1-.749-.7l-.186-3a.753.753 0 0 1 .7-.8.74.74 0 0 1 .8.7l.186 3a.754.754 0 0 1-.7.8zM6.662 59.154a.75.75 0 0 1-.75-.705l-.185-3a.75.75 0 0 1 .7-.8.737.737 0 0 1 .8.7l.186 3a.75.75 0 0 1-.7.8zm-.466-7.5a.75.75 0 0 1-.75-.7l-.185-3a.752.752 0 0 1 1.5-.094l.186 3a.754.754 0 0 1-.7.8zm-.464-7.5a.75.75 0 0 1-.75-.7l-.186-3a.75.75 0 0 1 .7-.8.736.736 0 0 1 .8.7l.187 3a.754.754 0 0 1-.7.8zm-.466-7.5a.75.75 0 0 1-.75-.7l-.185-3a.752.752 0 0 1 1.5-.094l.186 3a.75.75 0 0 1-.7.8zm-.466-7.5a.75.75 0 0 1-.75-.7l-.185-3a.753.753 0 0 1 .992-.765.74.74 0 0 1 .508.665l.186 3a.754.754 0 0 1-.7.8z"/></g><defs><clipPath id="a"><path fill="#fff" d="M0 0h80v80H0z"/></clipPath></defs></svg>