<svg width="32" height="32" viewBox="0 0 32 32" fill="none" xmlns="http://www.w3.org/2000/svg">
<rect x="3.48438" y="6.42188" width="25.0312" height="10.5625" rx="0.75" fill="url(#paint0_linear_6338_32284)"/>
<rect x="5" y="5.0625" width="22" height="13.4117" rx="2.5" fill="url(#paint1_linear_6338_32284)"/>
<rect x="5" y="5.0625" width="22" height="13.4117" rx="2.5" fill="url(#paint2_linear_6338_32284)"/>
<rect x="5" y="5.0625" width="22" height="13.4117" rx="2.5" fill="url(#paint3_radial_6338_32284)"/>
<rect x="5" y="5.0625" width="22" height="13.4117" rx="2.5" fill="url(#paint4_radial_6338_32284)"/>
<rect x="5" y="5.0625" width="22" height="13.4117" rx="2.5" fill="url(#paint5_linear_6338_32284)"/>
<rect x="5" y="9.0625" width="22" height="13.4117" rx="2.5" fill="url(#paint6_linear_6338_32284)"/>
<rect x="5" y="9.0625" width="22" height="13.4117" rx="2.5" fill="url(#paint7_linear_6338_32284)"/>
<rect x="5" y="9.0625" width="22" height="13.4117" rx="2.5" fill="url(#paint8_radial_6338_32284)"/>
<rect x="5" y="9.0625" width="22" height="13.4117" rx="2.5" fill="url(#paint9_linear_6338_32284)"/>
<rect x="5" y="9.0625" width="22" height="13.4117" rx="2.5" fill="url(#paint10_radial_6338_32284)"/>
<rect x="5" y="12.9375" width="22" height="13.4117" rx="2.5" fill="url(#paint11_linear_6338_32284)"/>
<rect x="5" y="12.9375" width="22" height="13.4117" rx="2.5" fill="url(#paint12_radial_6338_32284)"/>
<rect x="5" y="12.9375" width="22" height="13.4117" rx="2.5" fill="url(#paint13_linear_6338_32284)"/>
<rect x="5" y="12.9375" width="22" height="13.4117" rx="2.5" fill="url(#paint14_linear_6338_32284)"/>
<rect x="5" y="12.9375" width="22" height="13.4117" rx="2.5" fill="url(#paint15_radial_6338_32284)"/>
<path d="M1.96875 16.0938V27.625C1.96875 28.8676 2.97614 29.875 4.21875 29.875H27.5938C28.8364 29.875 29.8438 28.8676 29.8438 27.625V16.0938C29.8438 17.3364 28.8364 18.3438 27.5938 18.3438H4.21875C2.97614 18.3438 1.96875 17.3364 1.96875 16.0938Z" fill="url(#paint16_linear_6338_32284)"/>
<path d="M1.96875 16.0938V27.625C1.96875 28.8676 2.97614 29.875 4.21875 29.875H27.5938C28.8364 29.875 29.8438 28.8676 29.8438 27.625V16.0938C29.8438 17.3364 28.8364 18.3438 27.5938 18.3438H4.21875C2.97614 18.3438 1.96875 17.3364 1.96875 16.0938Z" fill="url(#paint17_linear_6338_32284)"/>
<path d="M1.96875 16.0938V27.625C1.96875 28.8676 2.97614 29.875 4.21875 29.875H27.5938C28.8364 29.875 29.8438 28.8676 29.8438 27.625V16.0938C29.8438 17.3364 28.8364 18.3438 27.5938 18.3438H4.21875C2.97614 18.3438 1.96875 17.3364 1.96875 16.0938Z" fill="url(#paint18_linear_6338_32284)"/>
<path d="M1.96875 16.0938V27.625C1.96875 28.8676 2.97614 29.875 4.21875 29.875H27.5938C28.8364 29.875 29.8438 28.8676 29.8438 27.625V16.0938C29.8438 17.3364 28.8364 18.3438 27.5938 18.3438H4.21875C2.97614 18.3438 1.96875 17.3364 1.96875 16.0938Z" fill="url(#paint19_radial_6338_32284)"/>
<path d="M1.96875 16.0938V27.625C1.96875 28.8676 2.97614 29.875 4.21875 29.875H27.5938C28.8364 29.875 29.8438 28.8676 29.8438 27.625V16.0938C29.8438 17.3364 28.8364 18.3438 27.5938 18.3438H4.21875C2.97614 18.3438 1.96875 17.3364 1.96875 16.0938Z" fill="url(#paint20_radial_6338_32284)"/>
<path d="M1.96875 16.0938V27.625C1.96875 28.8676 2.97614 29.875 4.21875 29.875H27.5938C28.8364 29.875 29.8438 28.8676 29.8438 27.625V16.0938C29.8438 17.3364 28.8364 18.3438 27.5938 18.3438H4.21875C2.97614 18.3438 1.96875 17.3364 1.96875 16.0938Z" fill="url(#paint21_radial_6338_32284)"/>
<path d="M1.96875 16.0938V27.625C1.96875 28.8676 2.97614 29.875 4.21875 29.875H27.5938C28.8364 29.875 29.8438 28.8676 29.8438 27.625V16.0938C29.8438 17.3364 28.8364 18.3438 27.5938 18.3438H4.21875C2.97614 18.3438 1.96875 17.3364 1.96875 16.0938Z" fill="url(#paint22_radial_6338_32284)"/>
<path d="M1.96875 16.0938V27.625C1.96875 28.8676 2.97614 29.875 4.21875 29.875H27.5938C28.8364 29.875 29.8438 28.8676 29.8438 27.625V16.0938C29.8438 17.3364 28.8364 18.3438 27.5938 18.3438H4.21875C2.97614 18.3438 1.96875 17.3364 1.96875 16.0938Z" fill="url(#paint23_radial_6338_32284)"/>
<path d="M1.96875 16.0938V27.625C1.96875 28.8676 2.97614 29.875 4.21875 29.875H27.5938C28.8364 29.875 29.8438 28.8676 29.8438 27.625V16.0938C29.8438 17.3364 28.8364 18.3438 27.5938 18.3438H4.21875C2.97614 18.3438 1.96875 17.3364 1.96875 16.0938Z" fill="url(#paint24_radial_6338_32284)"/>
<path d="M1.96875 16.0938V27.625C1.96875 28.8676 2.97614 29.875 4.21875 29.875H27.5938C28.8364 29.875 29.8438 28.8676 29.8438 27.625V16.0938C29.8438 17.3364 28.8364 18.3438 27.5938 18.3438H4.21875C2.97614 18.3438 1.96875 17.3364 1.96875 16.0938Z" fill="url(#paint25_radial_6338_32284)"/>
<path fill-rule="evenodd" clip-rule="evenodd" d="M13.3219 21.0156C12.5487 21.0156 11.9219 21.6424 11.9219 22.4156V25.5531C11.9219 26.3263 12.5487 26.9531 13.3219 26.9531H18.4984C19.2716 26.9531 19.8984 26.3263 19.8984 25.5531V22.4156C19.8984 21.6424 19.2716 21.0156 18.4984 21.0156H13.3219ZM13.2985 21.9766C13.0775 21.9766 12.8984 22.1556 12.8984 22.3766V25.5922C12.8984 25.8131 13.0775 25.9922 13.2985 25.9922H18.5219C18.7428 25.9922 18.9219 25.8131 18.9219 25.5922V22.3766C18.9219 22.1556 18.7428 21.9766 18.5219 21.9766H13.2985Z" fill="url(#paint26_linear_6338_32284)"/>
<path fill-rule="evenodd" clip-rule="evenodd" d="M13.3219 21.0156C12.5487 21.0156 11.9219 21.6424 11.9219 22.4156V25.5531C11.9219 26.3263 12.5487 26.9531 13.3219 26.9531H18.4984C19.2716 26.9531 19.8984 26.3263 19.8984 25.5531V22.4156C19.8984 21.6424 19.2716 21.0156 18.4984 21.0156H13.3219ZM13.2985 21.9766C13.0775 21.9766 12.8984 22.1556 12.8984 22.3766V25.5922C12.8984 25.8131 13.0775 25.9922 13.2985 25.9922H18.5219C18.7428 25.9922 18.9219 25.8131 18.9219 25.5922V22.3766C18.9219 22.1556 18.7428 21.9766 18.5219 21.9766H13.2985Z" fill="url(#paint27_linear_6338_32284)"/>
<path fill-rule="evenodd" clip-rule="evenodd" d="M13.3219 21.0156C12.5487 21.0156 11.9219 21.6424 11.9219 22.4156V25.5531C11.9219 26.3263 12.5487 26.9531 13.3219 26.9531H18.4984C19.2716 26.9531 19.8984 26.3263 19.8984 25.5531V22.4156C19.8984 21.6424 19.2716 21.0156 18.4984 21.0156H13.3219ZM13.2985 21.9766C13.0775 21.9766 12.8984 22.1556 12.8984 22.3766V25.5922C12.8984 25.8131 13.0775 25.9922 13.2985 25.9922H18.5219C18.7428 25.9922 18.9219 25.8131 18.9219 25.5922V22.3766C18.9219 22.1556 18.7428 21.9766 18.5219 21.9766H13.2985Z" fill="url(#paint28_linear_6338_32284)"/>
<path fill-rule="evenodd" clip-rule="evenodd" d="M13.3219 21.0156C12.5487 21.0156 11.9219 21.6424 11.9219 22.4156V25.5531C11.9219 26.3263 12.5487 26.9531 13.3219 26.9531H18.4984C19.2716 26.9531 19.8984 26.3263 19.8984 25.5531V22.4156C19.8984 21.6424 19.2716 21.0156 18.4984 21.0156H13.3219ZM13.2985 21.9766C13.0775 21.9766 12.8984 22.1556 12.8984 22.3766V25.5922C12.8984 25.8131 13.0775 25.9922 13.2985 25.9922H18.5219C18.7428 25.9922 18.9219 25.8131 18.9219 25.5922V22.3766C18.9219 22.1556 18.7428 21.9766 18.5219 21.9766H13.2985Z" fill="url(#paint29_linear_6338_32284)"/>
<path fill-rule="evenodd" clip-rule="evenodd" d="M13.3219 21.0156C12.5487 21.0156 11.9219 21.6424 11.9219 22.4156V25.5531C11.9219 26.3263 12.5487 26.9531 13.3219 26.9531H18.4984C19.2716 26.9531 19.8984 26.3263 19.8984 25.5531V22.4156C19.8984 21.6424 19.2716 21.0156 18.4984 21.0156H13.3219ZM13.2985 21.9766C13.0775 21.9766 12.8984 22.1556 12.8984 22.3766V25.5922C12.8984 25.8131 13.0775 25.9922 13.2985 25.9922H18.5219C18.7428 25.9922 18.9219 25.8131 18.9219 25.5922V22.3766C18.9219 22.1556 18.7428 21.9766 18.5219 21.9766H13.2985Z" fill="url(#paint30_radial_6338_32284)"/>
<path fill-rule="evenodd" clip-rule="evenodd" d="M13.3219 21.0156C12.5487 21.0156 11.9219 21.6424 11.9219 22.4156V25.5531C11.9219 26.3263 12.5487 26.9531 13.3219 26.9531H18.4984C19.2716 26.9531 19.8984 26.3263 19.8984 25.5531V22.4156C19.8984 21.6424 19.2716 21.0156 18.4984 21.0156H13.3219ZM13.2985 21.9766C13.0775 21.9766 12.8984 22.1556 12.8984 22.3766V25.5922C12.8984 25.8131 13.0775 25.9922 13.2985 25.9922H18.5219C18.7428 25.9922 18.9219 25.8131 18.9219 25.5922V22.3766C18.9219 22.1556 18.7428 21.9766 18.5219 21.9766H13.2985Z" fill="url(#paint31_radial_6338_32284)"/>
<path fill-rule="evenodd" clip-rule="evenodd" d="M13.3219 21.0156C12.5487 21.0156 11.9219 21.6424 11.9219 22.4156V25.5531C11.9219 26.3263 12.5487 26.9531 13.3219 26.9531H18.4984C19.2716 26.9531 19.8984 26.3263 19.8984 25.5531V22.4156C19.8984 21.6424 19.2716 21.0156 18.4984 21.0156H13.3219ZM13.2985 21.9766C13.0775 21.9766 12.8984 22.1556 12.8984 22.3766V25.5922C12.8984 25.8131 13.0775 25.9922 13.2985 25.9922H18.5219C18.7428 25.9922 18.9219 25.8131 18.9219 25.5922V22.3766C18.9219 22.1556 18.7428 21.9766 18.5219 21.9766H13.2985Z" fill="url(#paint32_radial_6338_32284)"/>
<path fill-rule="evenodd" clip-rule="evenodd" d="M13.3219 21.0156C12.5487 21.0156 11.9219 21.6424 11.9219 22.4156V25.5531C11.9219 26.3263 12.5487 26.9531 13.3219 26.9531H18.4984C19.2716 26.9531 19.8984 26.3263 19.8984 25.5531V22.4156C19.8984 21.6424 19.2716 21.0156 18.4984 21.0156H13.3219ZM13.2985 21.9766C13.0775 21.9766 12.8984 22.1556 12.8984 22.3766V25.5922C12.8984 25.8131 13.0775 25.9922 13.2985 25.9922H18.5219C18.7428 25.9922 18.9219 25.8131 18.9219 25.5922V22.3766C18.9219 22.1556 18.7428 21.9766 18.5219 21.9766H13.2985Z" fill="url(#paint33_linear_6338_32284)"/>
<path fill-rule="evenodd" clip-rule="evenodd" d="M13.3219 21.0156C12.5487 21.0156 11.9219 21.6424 11.9219 22.4156V25.5531C11.9219 26.3263 12.5487 26.9531 13.3219 26.9531H18.4984C19.2716 26.9531 19.8984 26.3263 19.8984 25.5531V22.4156C19.8984 21.6424 19.2716 21.0156 18.4984 21.0156H13.3219ZM13.2985 21.9766C13.0775 21.9766 12.8984 22.1556 12.8984 22.3766V25.5922C12.8984 25.8131 13.0775 25.9922 13.2985 25.9922H18.5219C18.7428 25.9922 18.9219 25.8131 18.9219 25.5922V22.3766C18.9219 22.1556 18.7428 21.9766 18.5219 21.9766H13.2985Z" fill="url(#paint34_linear_6338_32284)"/>
<path fill-rule="evenodd" clip-rule="evenodd" d="M13.3219 21.0156C12.5487 21.0156 11.9219 21.6424 11.9219 22.4156V25.5531C11.9219 26.3263 12.5487 26.9531 13.3219 26.9531H18.4984C19.2716 26.9531 19.8984 26.3263 19.8984 25.5531V22.4156C19.8984 21.6424 19.2716 21.0156 18.4984 21.0156H13.3219ZM13.2985 21.9766C13.0775 21.9766 12.8984 22.1556 12.8984 22.3766V25.5922C12.8984 25.8131 13.0775 25.9922 13.2985 25.9922H18.5219C18.7428 25.9922 18.9219 25.8131 18.9219 25.5922V22.3766C18.9219 22.1556 18.7428 21.9766 18.5219 21.9766H13.2985Z" fill="url(#paint35_linear_6338_32284)"/>
<path fill-rule="evenodd" clip-rule="evenodd" d="M13.3219 21.0156C12.5487 21.0156 11.9219 21.6424 11.9219 22.4156V25.5531C11.9219 26.3263 12.5487 26.9531 13.3219 26.9531H18.4984C19.2716 26.9531 19.8984 26.3263 19.8984 25.5531V22.4156C19.8984 21.6424 19.2716 21.0156 18.4984 21.0156H13.3219ZM13.2985 21.9766C13.0775 21.9766 12.8984 22.1556 12.8984 22.3766V25.5922C12.8984 25.8131 13.0775 25.9922 13.2985 25.9922H18.5219C18.7428 25.9922 18.9219 25.8131 18.9219 25.5922V22.3766C18.9219 22.1556 18.7428 21.9766 18.5219 21.9766H13.2985Z" fill="url(#paint36_radial_6338_32284)"/>
<path fill-rule="evenodd" clip-rule="evenodd" d="M13.3219 21.0156C12.5487 21.0156 11.9219 21.6424 11.9219 22.4156V25.5531C11.9219 26.3263 12.5487 26.9531 13.3219 26.9531H18.4984C19.2716 26.9531 19.8984 26.3263 19.8984 25.5531V22.4156C19.8984 21.6424 19.2716 21.0156 18.4984 21.0156H13.3219ZM13.2985 21.9766C13.0775 21.9766 12.8984 22.1556 12.8984 22.3766V25.5922C12.8984 25.8131 13.0775 25.9922 13.2985 25.9922H18.5219C18.7428 25.9922 18.9219 25.8131 18.9219 25.5922V22.3766C18.9219 22.1556 18.7428 21.9766 18.5219 21.9766H13.2985Z" fill="url(#paint37_radial_6338_32284)"/>
<path fill-rule="evenodd" clip-rule="evenodd" d="M13.3219 21.0156C12.5487 21.0156 11.9219 21.6424 11.9219 22.4156V25.5531C11.9219 26.3263 12.5487 26.9531 13.3219 26.9531H18.4984C19.2716 26.9531 19.8984 26.3263 19.8984 25.5531V22.4156C19.8984 21.6424 19.2716 21.0156 18.4984 21.0156H13.3219ZM13.2985 21.9766C13.0775 21.9766 12.8984 22.1556 12.8984 22.3766V25.5922C12.8984 25.8131 13.0775 25.9922 13.2985 25.9922H18.5219C18.7428 25.9922 18.9219 25.8131 18.9219 25.5922V22.3766C18.9219 22.1556 18.7428 21.9766 18.5219 21.9766H13.2985Z" fill="url(#paint38_radial_6338_32284)"/>
<path d="M1.96875 7.3125C1.96875 6.06986 2.97614 5.0625 4.21875 5.0625H7.5C6.53015 5.0625 5.68933 5.61472 5.27478 6.42188H4.23438C3.82019 6.42188 3.48438 6.75766 3.48438 7.17188V16.2344C3.48438 16.6486 3.82019 16.9844 4.23438 16.9844H27.7656C28.1798 16.9844 28.5156 16.6486 28.5156 16.2344V7.17188C28.5156 6.75766 28.1798 6.42188 27.7656 6.42188H26.7252C26.3107 5.61472 25.4698 5.0625 24.5 5.0625H27.5938C28.8364 5.0625 29.8438 6.06986 29.8438 7.3125V16.0938C29.8438 17.3364 28.8364 18.3438 27.5938 18.3438H4.21875C2.97614 18.3438 1.96875 17.3364 1.96875 16.0938V7.3125Z" fill="url(#paint39_linear_6338_32284)"/>
<path d="M1.96875 7.3125C1.96875 6.06986 2.97614 5.0625 4.21875 5.0625H7.5C6.53015 5.0625 5.68933 5.61472 5.27478 6.42188H4.23438C3.82019 6.42188 3.48438 6.75766 3.48438 7.17188V16.2344C3.48438 16.6486 3.82019 16.9844 4.23438 16.9844H27.7656C28.1798 16.9844 28.5156 16.6486 28.5156 16.2344V7.17188C28.5156 6.75766 28.1798 6.42188 27.7656 6.42188H26.7252C26.3107 5.61472 25.4698 5.0625 24.5 5.0625H27.5938C28.8364 5.0625 29.8438 6.06986 29.8438 7.3125V16.0938C29.8438 17.3364 28.8364 18.3438 27.5938 18.3438H4.21875C2.97614 18.3438 1.96875 17.3364 1.96875 16.0938V7.3125Z" fill="url(#paint40_radial_6338_32284)"/>
<path d="M1.96875 7.3125C1.96875 6.06986 2.97614 5.0625 4.21875 5.0625H7.5C6.53015 5.0625 5.68933 5.61472 5.27478 6.42188H4.23438C3.82019 6.42188 3.48438 6.75766 3.48438 7.17188V16.2344C3.48438 16.6486 3.82019 16.9844 4.23438 16.9844H27.7656C28.1798 16.9844 28.5156 16.6486 28.5156 16.2344V7.17188C28.5156 6.75766 28.1798 6.42188 27.7656 6.42188H26.7252C26.3107 5.61472 25.4698 5.0625 24.5 5.0625H27.5938C28.8364 5.0625 29.8438 6.06986 29.8438 7.3125V16.0938C29.8438 17.3364 28.8364 18.3438 27.5938 18.3438H4.21875C2.97614 18.3438 1.96875 17.3364 1.96875 16.0938V7.3125Z" fill="url(#paint41_linear_6338_32284)"/>
<path d="M1.96875 7.3125C1.96875 6.06986 2.97614 5.0625 4.21875 5.0625H7.5C6.53015 5.0625 5.68933 5.61472 5.27478 6.42188H4.23438C3.82019 6.42188 3.48438 6.75766 3.48438 7.17188V16.2344C3.48438 16.6486 3.82019 16.9844 4.23438 16.9844H27.7656C28.1798 16.9844 28.5156 16.6486 28.5156 16.2344V7.17188C28.5156 6.75766 28.1798 6.42188 27.7656 6.42188H26.7252C26.3107 5.61472 25.4698 5.0625 24.5 5.0625H27.5938C28.8364 5.0625 29.8438 6.06986 29.8438 7.3125V16.0938C29.8438 17.3364 28.8364 18.3438 27.5938 18.3438H4.21875C2.97614 18.3438 1.96875 17.3364 1.96875 16.0938V7.3125Z" fill="url(#paint42_linear_6338_32284)"/>
<path d="M1.96875 7.3125C1.96875 6.06986 2.97614 5.0625 4.21875 5.0625H7.5C6.53015 5.0625 5.68933 5.61472 5.27478 6.42188H4.23438C3.82019 6.42188 3.48438 6.75766 3.48438 7.17188V16.2344C3.48438 16.6486 3.82019 16.9844 4.23438 16.9844H27.7656C28.1798 16.9844 28.5156 16.6486 28.5156 16.2344V7.17188C28.5156 6.75766 28.1798 6.42188 27.7656 6.42188H26.7252C26.3107 5.61472 25.4698 5.0625 24.5 5.0625H27.5938C28.8364 5.0625 29.8438 6.06986 29.8438 7.3125V16.0938C29.8438 17.3364 28.8364 18.3438 27.5938 18.3438H4.21875C2.97614 18.3438 1.96875 17.3364 1.96875 16.0938V7.3125Z" fill="url(#paint43_linear_6338_32284)"/>
<path d="M1.96875 7.3125C1.96875 6.06986 2.97614 5.0625 4.21875 5.0625H7.5C6.53015 5.0625 5.68933 5.61472 5.27478 6.42188H4.23438C3.82019 6.42188 3.48438 6.75766 3.48438 7.17188V16.2344C3.48438 16.6486 3.82019 16.9844 4.23438 16.9844H27.7656C28.1798 16.9844 28.5156 16.6486 28.5156 16.2344V7.17188C28.5156 6.75766 28.1798 6.42188 27.7656 6.42188H26.7252C26.3107 5.61472 25.4698 5.0625 24.5 5.0625H27.5938C28.8364 5.0625 29.8438 6.06986 29.8438 7.3125V16.0938C29.8438 17.3364 28.8364 18.3438 27.5938 18.3438H4.21875C2.97614 18.3438 1.96875 17.3364 1.96875 16.0938V7.3125Z" fill="url(#paint44_linear_6338_32284)"/>
<path d="M1.96875 7.3125C1.96875 6.06986 2.97614 5.0625 4.21875 5.0625H7.5C6.53015 5.0625 5.68933 5.61472 5.27478 6.42188H4.23438C3.82019 6.42188 3.48438 6.75766 3.48438 7.17188V16.2344C3.48438 16.6486 3.82019 16.9844 4.23438 16.9844H27.7656C28.1798 16.9844 28.5156 16.6486 28.5156 16.2344V7.17188C28.5156 6.75766 28.1798 6.42188 27.7656 6.42188H26.7252C26.3107 5.61472 25.4698 5.0625 24.5 5.0625H27.5938C28.8364 5.0625 29.8438 6.06986 29.8438 7.3125V16.0938C29.8438 17.3364 28.8364 18.3438 27.5938 18.3438H4.21875C2.97614 18.3438 1.96875 17.3364 1.96875 16.0938V7.3125Z" fill="url(#paint45_radial_6338_32284)"/>
<path d="M1.96875 7.3125C1.96875 6.06986 2.97614 5.0625 4.21875 5.0625H7.5C6.53015 5.0625 5.68933 5.61472 5.27478 6.42188H4.23438C3.82019 6.42188 3.48438 6.75766 3.48438 7.17188V16.2344C3.48438 16.6486 3.82019 16.9844 4.23438 16.9844H27.7656C28.1798 16.9844 28.5156 16.6486 28.5156 16.2344V7.17188C28.5156 6.75766 28.1798 6.42188 27.7656 6.42188H26.7252C26.3107 5.61472 25.4698 5.0625 24.5 5.0625H27.5938C28.8364 5.0625 29.8438 6.06986 29.8438 7.3125V16.0938C29.8438 17.3364 28.8364 18.3438 27.5938 18.3438H4.21875C2.97614 18.3438 1.96875 17.3364 1.96875 16.0938V7.3125Z" fill="url(#paint46_radial_6338_32284)"/>
<path d="M1.96875 7.3125C1.96875 6.06986 2.97614 5.0625 4.21875 5.0625H7.5C6.53015 5.0625 5.68933 5.61472 5.27478 6.42188H4.23438C3.82019 6.42188 3.48438 6.75766 3.48438 7.17188V16.2344C3.48438 16.6486 3.82019 16.9844 4.23438 16.9844H27.7656C28.1798 16.9844 28.5156 16.6486 28.5156 16.2344V7.17188C28.5156 6.75766 28.1798 6.42188 27.7656 6.42188H26.7252C26.3107 5.61472 25.4698 5.0625 24.5 5.0625H27.5938C28.8364 5.0625 29.8438 6.06986 29.8438 7.3125V16.0938C29.8438 17.3364 28.8364 18.3438 27.5938 18.3438H4.21875C2.97614 18.3438 1.96875 17.3364 1.96875 16.0938V7.3125Z" fill="url(#paint47_radial_6338_32284)"/>
<path d="M1.96875 7.3125C1.96875 6.06986 2.97614 5.0625 4.21875 5.0625H7.5C6.53015 5.0625 5.68933 5.61472 5.27478 6.42188H4.23438C3.82019 6.42188 3.48438 6.75766 3.48438 7.17188V16.2344C3.48438 16.6486 3.82019 16.9844 4.23438 16.9844H27.7656C28.1798 16.9844 28.5156 16.6486 28.5156 16.2344V7.17188C28.5156 6.75766 28.1798 6.42188 27.7656 6.42188H26.7252C26.3107 5.61472 25.4698 5.0625 24.5 5.0625H27.5938C28.8364 5.0625 29.8438 6.06986 29.8438 7.3125V16.0938C29.8438 17.3364 28.8364 18.3438 27.5938 18.3438H4.21875C2.97614 18.3438 1.96875 17.3364 1.96875 16.0938V7.3125Z" fill="url(#paint48_radial_6338_32284)"/>
<path d="M1.96875 7.3125C1.96875 6.06986 2.97614 5.0625 4.21875 5.0625H7.5C6.53015 5.0625 5.68933 5.61472 5.27478 6.42188H4.23438C3.82019 6.42188 3.48438 6.75766 3.48438 7.17188V16.2344C3.48438 16.6486 3.82019 16.9844 4.23438 16.9844H27.7656C28.1798 16.9844 28.5156 16.6486 28.5156 16.2344V7.17188C28.5156 6.75766 28.1798 6.42188 27.7656 6.42188H26.7252C26.3107 5.61472 25.4698 5.0625 24.5 5.0625H27.5938C28.8364 5.0625 29.8438 6.06986 29.8438 7.3125V16.0938C29.8438 17.3364 28.8364 18.3438 27.5938 18.3438H4.21875C2.97614 18.3438 1.96875 17.3364 1.96875 16.0938V7.3125Z" fill="url(#paint49_radial_6338_32284)"/>
<path d="M1.96875 7.3125C1.96875 6.06986 2.97614 5.0625 4.21875 5.0625H7.5C6.53015 5.0625 5.68933 5.61472 5.27478 6.42188H4.23438C3.82019 6.42188 3.48438 6.75766 3.48438 7.17188V16.2344C3.48438 16.6486 3.82019 16.9844 4.23438 16.9844H27.7656C28.1798 16.9844 28.5156 16.6486 28.5156 16.2344V7.17188C28.5156 6.75766 28.1798 6.42188 27.7656 6.42188H26.7252C26.3107 5.61472 25.4698 5.0625 24.5 5.0625H27.5938C28.8364 5.0625 29.8438 6.06986 29.8438 7.3125V16.0938C29.8438 17.3364 28.8364 18.3438 27.5938 18.3438H4.21875C2.97614 18.3438 1.96875 17.3364 1.96875 16.0938V7.3125Z" fill="url(#paint50_radial_6338_32284)"/>
<path d="M1.96875 7.3125C1.96875 6.06986 2.97614 5.0625 4.21875 5.0625H7.5C6.53015 5.0625 5.68933 5.61472 5.27478 6.42188H4.23438C3.82019 6.42188 3.48438 6.75766 3.48438 7.17188V16.2344C3.48438 16.6486 3.82019 16.9844 4.23438 16.9844H27.7656C28.1798 16.9844 28.5156 16.6486 28.5156 16.2344V7.17188C28.5156 6.75766 28.1798 6.42188 27.7656 6.42188H26.7252C26.3107 5.61472 25.4698 5.0625 24.5 5.0625H27.5938C28.8364 5.0625 29.8438 6.06986 29.8438 7.3125V16.0938C29.8438 17.3364 28.8364 18.3438 27.5938 18.3438H4.21875C2.97614 18.3438 1.96875 17.3364 1.96875 16.0938V7.3125Z" fill="url(#paint51_radial_6338_32284)"/>
<path d="M1.96875 7.3125C1.96875 6.06986 2.97614 5.0625 4.21875 5.0625H7.5C6.53015 5.0625 5.68933 5.61472 5.27478 6.42188H4.23438C3.82019 6.42188 3.48438 6.75766 3.48438 7.17188V16.2344C3.48438 16.6486 3.82019 16.9844 4.23438 16.9844H27.7656C28.1798 16.9844 28.5156 16.6486 28.5156 16.2344V7.17188C28.5156 6.75766 28.1798 6.42188 27.7656 6.42188H26.7252C26.3107 5.61472 25.4698 5.0625 24.5 5.0625H27.5938C28.8364 5.0625 29.8438 6.06986 29.8438 7.3125V16.0938C29.8438 17.3364 28.8364 18.3438 27.5938 18.3438H4.21875C2.97614 18.3438 1.96875 17.3364 1.96875 16.0938V7.3125Z" fill="url(#paint52_radial_6338_32284)"/>
<path d="M1.96875 7.3125C1.96875 6.06986 2.97614 5.0625 4.21875 5.0625H7.5C6.53015 5.0625 5.68933 5.61472 5.27478 6.42188H4.23438C3.82019 6.42188 3.48438 6.75766 3.48438 7.17188V16.2344C3.48438 16.6486 3.82019 16.9844 4.23438 16.9844H27.7656C28.1798 16.9844 28.5156 16.6486 28.5156 16.2344V7.17188C28.5156 6.75766 28.1798 6.42188 27.7656 6.42188H26.7252C26.3107 5.61472 25.4698 5.0625 24.5 5.0625H27.5938C28.8364 5.0625 29.8438 6.06986 29.8438 7.3125V16.0938C29.8438 17.3364 28.8364 18.3438 27.5938 18.3438H4.21875C2.97614 18.3438 1.96875 17.3364 1.96875 16.0938V7.3125Z" fill="url(#paint53_radial_6338_32284)"/>
<path d="M7.94922 11.9375C7.94922 11.3852 8.39693 10.9375 8.94922 10.9375H12.9727C13.5249 10.9375 13.9727 11.3852 13.9727 11.9375V12.9375H7.94922V11.9375Z" fill="url(#paint54_linear_6338_32284)"/>
<path d="M7.94922 11.9375C7.94922 11.3852 8.39693 10.9375 8.94922 10.9375H12.9727C13.5249 10.9375 13.9727 11.3852 13.9727 11.9375V12.9375H7.94922V11.9375Z" fill="url(#paint55_linear_6338_32284)"/>
<path d="M7.94922 11.9375C7.94922 11.3852 8.39693 10.9375 8.94922 10.9375H12.9727C13.5249 10.9375 13.9727 11.3852 13.9727 11.9375V12.9375H7.94922V11.9375Z" fill="url(#paint56_linear_6338_32284)"/>
<path d="M7.94922 11.9375C7.94922 11.3852 8.39693 10.9375 8.94922 10.9375H12.9727C13.5249 10.9375 13.9727 11.3852 13.9727 11.9375V12.9375H7.94922V11.9375Z" fill="url(#paint57_linear_6338_32284)"/>
<path d="M7.94922 11.9375C7.94922 11.3852 8.39693 10.9375 8.94922 10.9375H12.9727C13.5249 10.9375 13.9727 11.3852 13.9727 11.9375V12.9375H7.94922V11.9375Z" fill="url(#paint58_linear_6338_32284)"/>
<path d="M7.94922 11.9375C7.94922 11.3852 8.39693 10.9375 8.94922 10.9375H12.9727C13.5249 10.9375 13.9727 11.3852 13.9727 11.9375V12.9375H7.94922V11.9375Z" fill="url(#paint59_linear_6338_32284)"/>
<path d="M7.94922 11.9375C7.94922 11.3852 8.39693 10.9375 8.94922 10.9375H12.9727C13.5249 10.9375 13.9727 11.3852 13.9727 11.9375V12.9375H7.94922V11.9375Z" fill="url(#paint60_linear_6338_32284)"/>
<path d="M12.8945 8.0625C12.8945 7.51022 13.3422 7.0625 13.8945 7.0625H17.918C18.4703 7.0625 18.918 7.51022 18.918 8.0625V9.0625H12.8945V8.0625Z" fill="url(#paint61_linear_6338_32284)"/>
<path d="M12.8945 8.0625C12.8945 7.51022 13.3422 7.0625 13.8945 7.0625H17.918C18.4703 7.0625 18.918 7.51022 18.918 8.0625V9.0625H12.8945V8.0625Z" fill="url(#paint62_linear_6338_32284)"/>
<path d="M12.8945 8.0625C12.8945 7.51022 13.3422 7.0625 13.8945 7.0625H17.918C18.4703 7.0625 18.918 7.51022 18.918 8.0625V9.0625H12.8945V8.0625Z" fill="url(#paint63_linear_6338_32284)"/>
<path d="M12.8945 8.0625C12.8945 7.51022 13.3422 7.0625 13.8945 7.0625H17.918C18.4703 7.0625 18.918 7.51022 18.918 8.0625V9.0625H12.8945V8.0625Z" fill="url(#paint64_linear_6338_32284)"/>
<path d="M12.8945 8.0625C12.8945 7.51022 13.3422 7.0625 13.8945 7.0625H17.918C18.4703 7.0625 18.918 7.51022 18.918 8.0625V9.0625H12.8945V8.0625Z" fill="url(#paint65_linear_6338_32284)"/>
<path d="M12.8945 8.0625C12.8945 7.51022 13.3422 7.0625 13.8945 7.0625H17.918C18.4703 7.0625 18.918 7.51022 18.918 8.0625V9.0625H12.8945V8.0625Z" fill="url(#paint66_linear_6338_32284)"/>
<path d="M17.8555 4.0625C17.8555 3.51022 18.3032 3.0625 18.8555 3.0625H22.8789C23.4312 3.0625 23.8789 3.51022 23.8789 4.0625V5.0625H17.8555V4.0625Z" fill="url(#paint67_linear_6338_32284)"/>
<path d="M17.8555 4.0625C17.8555 3.51022 18.3032 3.0625 18.8555 3.0625H22.8789C23.4312 3.0625 23.8789 3.51022 23.8789 4.0625V5.0625H17.8555V4.0625Z" fill="url(#paint68_linear_6338_32284)"/>
<path d="M17.8555 4.0625C17.8555 3.51022 18.3032 3.0625 18.8555 3.0625H22.8789C23.4312 3.0625 23.8789 3.51022 23.8789 4.0625V5.0625H17.8555V4.0625Z" fill="url(#paint69_linear_6338_32284)"/>
<path d="M17.8555 4.0625C17.8555 3.51022 18.3032 3.0625 18.8555 3.0625H22.8789C23.4312 3.0625 23.8789 3.51022 23.8789 4.0625V5.0625H17.8555V4.0625Z" fill="url(#paint70_linear_6338_32284)"/>
<path d="M17.8555 4.0625C17.8555 3.51022 18.3032 3.0625 18.8555 3.0625H22.8789C23.4312 3.0625 23.8789 3.51022 23.8789 4.0625V5.0625H17.8555V4.0625Z" fill="url(#paint71_linear_6338_32284)"/>
<path d="M17.8555 4.0625C17.8555 3.51022 18.3032 3.0625 18.8555 3.0625H22.8789C23.4312 3.0625 23.8789 3.51022 23.8789 4.0625V5.0625H17.8555V4.0625Z" fill="url(#paint72_linear_6338_32284)"/>
<path d="M17.8555 4.0625C17.8555 3.51022 18.3032 3.0625 18.8555 3.0625H22.8789C23.4312 3.0625 23.8789 3.51022 23.8789 4.0625V5.0625H17.8555V4.0625Z" fill="url(#paint73_linear_6338_32284)"/>
<rect x="12.8984" y="21.9766" width="6.02344" height="4.01562" rx="0.4" fill="url(#paint74_linear_6338_32284)"/>
<defs>
<linearGradient id="paint0_linear_6338_32284" x1="16" y1="6.42187" x2="16" y2="16.9844" gradientUnits="userSpaceOnUse">
<stop stop-color="#4B3D53"/>
<stop offset="1" stop-color="#321143"/>
</linearGradient>
<linearGradient id="paint1_linear_6338_32284" x1="16" y1="5.0625" x2="16" y2="8.61928" gradientUnits="userSpaceOnUse">
<stop stop-color="#FFD650"/>
<stop offset="1" stop-color="#FFCD4A"/>
</linearGradient>
<linearGradient id="paint2_linear_6338_32284" x1="16" y1="8.68868" x2="16" y2="6.67606" gradientUnits="userSpaceOnUse">
<stop stop-color="#FFBA48"/>
<stop offset="1" stop-color="#FFBA48" stop-opacity="0"/>
</linearGradient>
<radialGradient id="paint3_radial_6338_32284" cx="0" cy="0" r="1" gradientUnits="userSpaceOnUse" gradientTransform="translate(27.1913 7.41006) rotate(180) scale(1.24142 5.84594)">
<stop stop-color="#FFE857"/>
<stop offset="1" stop-color="#FFE857" stop-opacity="0"/>
</radialGradient>
<radialGradient id="paint4_radial_6338_32284" cx="0" cy="0" r="1" gradientUnits="userSpaceOnUse" gradientTransform="translate(27 5.42227) rotate(134.482) scale(1.7954 3.03687)">
<stop stop-color="#FFE857"/>
<stop offset="1" stop-color="#FFE857" stop-opacity="0"/>
</radialGradient>
<linearGradient id="paint5_linear_6338_32284" x1="16" y1="5.0625" x2="16" y2="6.29598" gradientUnits="userSpaceOnUse">
<stop stop-color="#F9CA4C"/>
<stop offset="1" stop-color="#F9CA4C" stop-opacity="0"/>
</linearGradient>
<linearGradient id="paint6_linear_6338_32284" x1="16" y1="9.0625" x2="16" y2="22.4742" gradientUnits="userSpaceOnUse">
<stop stop-color="#FFDA53"/>
<stop offset="1" stop-color="#FFBA59"/>
</linearGradient>
<linearGradient id="paint7_linear_6338_32284" x1="16" y1="13.3827" x2="16" y2="10.6414" gradientUnits="userSpaceOnUse">
<stop stop-color="#FFBA48"/>
<stop offset="1" stop-color="#FFBA48" stop-opacity="0"/>
</linearGradient>
<radialGradient id="paint8_radial_6338_32284" cx="0" cy="0" r="1" gradientUnits="userSpaceOnUse" gradientTransform="translate(27 9.42227) rotate(134.482) scale(1.7954 3.03687)">
<stop stop-color="#FFE857"/>
<stop offset="1" stop-color="#FFE857" stop-opacity="0"/>
</radialGradient>
<linearGradient id="paint9_linear_6338_32284" x1="16" y1="9.0625" x2="16" y2="10.4098" gradientUnits="userSpaceOnUse">
<stop offset="0.14252" stop-color="#FFE34A"/>
<stop offset="0.757556" stop-color="#FFE34A" stop-opacity="0.141064"/>
<stop offset="1" stop-color="#FFE34A" stop-opacity="0"/>
</linearGradient>
<radialGradient id="paint10_radial_6338_32284" cx="0" cy="0" r="1" gradientUnits="userSpaceOnUse" gradientTransform="translate(27.1913 11.4101) rotate(180) scale(1.24142 5.84594)">
<stop stop-color="#FFE857"/>
<stop offset="1" stop-color="#FFE857" stop-opacity="0"/>
</radialGradient>
<linearGradient id="paint11_linear_6338_32284" x1="16" y1="12.9375" x2="16" y2="26.3492" gradientUnits="userSpaceOnUse">
<stop stop-color="#FFDA53"/>
<stop offset="1" stop-color="#FFBA59"/>
</linearGradient>
<radialGradient id="paint12_radial_6338_32284" cx="0" cy="0" r="1" gradientUnits="userSpaceOnUse" gradientTransform="translate(27 13.2973) rotate(134.482) scale(1.7954 3.03687)">
<stop stop-color="#FFE857"/>
<stop offset="1" stop-color="#FFE857" stop-opacity="0"/>
</radialGradient>
<linearGradient id="paint13_linear_6338_32284" x1="16" y1="12.9375" x2="16" y2="14.3656" gradientUnits="userSpaceOnUse">
<stop stop-color="#FFF151"/>
<stop offset="0.806099" stop-color="#FFF151" stop-opacity="0.117988"/>
<stop offset="1" stop-color="#FFF151" stop-opacity="0"/>
</linearGradient>
<linearGradient id="paint14_linear_6338_32284" x1="4.15537" y1="15.8613" x2="5.75993" y2="15.8613" gradientUnits="userSpaceOnUse">
<stop stop-color="#F49968"/>
<stop offset="1" stop-color="#F49968" stop-opacity="0"/>
</linearGradient>
<radialGradient id="paint15_radial_6338_32284" cx="0" cy="0" r="1" gradientUnits="userSpaceOnUse" gradientTransform="translate(27.1913 15.2851) rotate(180) scale(1.24142 5.84594)">
<stop stop-color="#FFE857"/>
<stop offset="1" stop-color="#FFE857" stop-opacity="0"/>
</radialGradient>
<linearGradient id="paint16_linear_6338_32284" x1="15.9062" y1="16.0938" x2="15.9062" y2="29.875" gradientUnits="userSpaceOnUse">
<stop stop-color="#5D4A72"/>
<stop offset="1" stop-color="#544862"/>
</linearGradient>
<linearGradient id="paint17_linear_6338_32284" x1="30.0313" y1="28.0625" x2="27.3438" y2="28.0625" gradientUnits="userSpaceOnUse">
<stop offset="0.546512" stop-color="#5D5468"/>
<stop offset="1" stop-color="#5B5069" stop-opacity="0"/>
</linearGradient>
<linearGradient id="paint18_linear_6338_32284" x1="1.96875" y1="25.1875" x2="4.5" y2="25.1875" gradientUnits="userSpaceOnUse">
<stop stop-color="#564F5E"/>
<stop offset="1" stop-color="#564F5E" stop-opacity="0"/>
</linearGradient>
<radialGradient id="paint19_radial_6338_32284" cx="0" cy="0" r="1" gradientUnits="userSpaceOnUse" gradientTransform="translate(12.8125 25.8438) rotate(118.475) scale(1.59038)">
<stop offset="0.320642" stop-color="#443358"/>
<stop offset="0.790773" stop-color="#443358" stop-opacity="0.0801243"/>
<stop offset="1" stop-color="#443358" stop-opacity="0"/>
</radialGradient>
<radialGradient id="paint20_radial_6338_32284" cx="0" cy="0" r="1" gradientUnits="userSpaceOnUse" gradientTransform="translate(12.7633 24.0982) rotate(180) scale(1.55995 3.57205)">
<stop offset="0.513665" stop-color="#443358"/>
<stop offset="0.897191" stop-color="#443358" stop-opacity="0.120277"/>
<stop offset="1" stop-color="#443358" stop-opacity="0"/>
</radialGradient>
<radialGradient id="paint21_radial_6338_32284" cx="0" cy="0" r="1" gradientUnits="userSpaceOnUse" gradientTransform="translate(14.0183 26.2111) rotate(90) scale(1.29904 2.45617)">
<stop offset="0.546218" stop-color="#443358"/>
<stop offset="0.918202" stop-color="#443358" stop-opacity="0.120277"/>
<stop offset="1" stop-color="#443358" stop-opacity="0"/>
</radialGradient>
<radialGradient id="paint22_radial_6338_32284" cx="0" cy="0" r="1" gradientUnits="userSpaceOnUse" gradientTransform="translate(12.6885 22.1643) rotate(-135) scale(1.4706)">
<stop offset="0.417809" stop-color="#443358"/>
<stop offset="0.842466" stop-color="#443358" stop-opacity="0.120277"/>
<stop offset="1" stop-color="#443358" stop-opacity="0"/>
</radialGradient>
<radialGradient id="paint23_radial_6338_32284" cx="0" cy="0" r="1" gradientUnits="userSpaceOnUse" gradientTransform="translate(15.5861 26.1215) rotate(90) scale(1.26544 3.27)">
<stop offset="0.546218" stop-color="#443358"/>
<stop offset="0.918202" stop-color="#443358" stop-opacity="0.120277"/>
<stop offset="1" stop-color="#443358" stop-opacity="0"/>
</radialGradient>
<radialGradient id="paint24_radial_6338_32284" cx="0" cy="0" r="1" gradientUnits="userSpaceOnUse" gradientTransform="translate(16.7365 25.9477) rotate(90) scale(1.60011 3.89414)">
<stop offset="0.596299" stop-color="#443358"/>
<stop offset="0.918202" stop-color="#443358" stop-opacity="0.120277"/>
<stop offset="1" stop-color="#443358" stop-opacity="0"/>
</radialGradient>
<radialGradient id="paint25_radial_6338_32284" cx="0" cy="0" r="1" gradientUnits="userSpaceOnUse" gradientTransform="translate(18.0976 25.637) rotate(90) scale(1.88299)">
<stop offset="0.596299" stop-color="#443358"/>
<stop offset="0.918202" stop-color="#443358" stop-opacity="0.120277"/>
<stop offset="1" stop-color="#443358" stop-opacity="0"/>
</radialGradient>
<linearGradient id="paint26_linear_6338_32284" x1="15.9102" y1="21.0156" x2="15.9102" y2="26.9531" gradientUnits="userSpaceOnUse">
<stop stop-color="#8B6DC5"/>
<stop offset="1" stop-color="#8466BE"/>
</linearGradient>
<linearGradient id="paint27_linear_6338_32284" x1="15.9102" y1="21.0156" x2="15.9102" y2="21.378" gradientUnits="userSpaceOnUse">
<stop offset="0.276042" stop-color="#927CCA"/>
<stop offset="1" stop-color="#927CCA" stop-opacity="0"/>
</linearGradient>
<linearGradient id="paint28_linear_6338_32284" x1="19.8984" y1="24.1257" x2="19.5884" y2="24.1257" gradientUnits="userSpaceOnUse">
<stop offset="0.276042" stop-color="#927CCA"/>
<stop offset="1" stop-color="#927CCA" stop-opacity="0"/>
</linearGradient>
<linearGradient id="paint29_linear_6338_32284" x1="19.7065" y1="21.5237" x2="19.2494" y2="21.9903" gradientUnits="userSpaceOnUse">
<stop offset="0.276042" stop-color="#927CCA"/>
<stop offset="1" stop-color="#927CCA" stop-opacity="0"/>
</linearGradient>
<radialGradient id="paint30_radial_6338_32284" cx="0" cy="0" r="1" gradientUnits="userSpaceOnUse" gradientTransform="translate(13.3569 25.6551) rotate(-156.666) scale(0.586551 0.642631)">
<stop offset="0.276042" stop-color="#927CCA"/>
<stop offset="1" stop-color="#927CCA" stop-opacity="0"/>
</radialGradient>
<radialGradient id="paint31_radial_6338_32284" cx="0" cy="0" r="1" gradientUnits="userSpaceOnUse" gradientTransform="translate(15.3918 26.0502) rotate(0.164495) scale(2.65224 0.248523)">
<stop stop-color="#927CCA"/>
<stop offset="1" stop-color="#927CCA" stop-opacity="0"/>
</radialGradient>
<radialGradient id="paint32_radial_6338_32284" cx="0" cy="0" r="1" gradientUnits="userSpaceOnUse" gradientTransform="translate(12.9474 24.2772) rotate(-89.0546) scale(2.05976 0.36982)">
<stop stop-color="#927CCA"/>
<stop offset="1" stop-color="#927CCA" stop-opacity="0"/>
</radialGradient>
<linearGradient id="paint33_linear_6338_32284" x1="16.0435" y1="20.9354" x2="16.0435" y2="21.0902" gradientUnits="userSpaceOnUse">
<stop stop-color="#927CCA"/>
<stop offset="1" stop-color="#927CCA" stop-opacity="0"/>
</linearGradient>
<linearGradient id="paint34_linear_6338_32284" x1="15.9102" y1="27.0854" x2="15.9102" y2="26.3806" gradientUnits="userSpaceOnUse">
<stop stop-color="#884BD4"/>
<stop offset="1" stop-color="#884BD4" stop-opacity="0"/>
</linearGradient>
<linearGradient id="paint35_linear_6338_32284" x1="11.3891" y1="25.4367" x2="12.4149" y2="25.3771" gradientUnits="userSpaceOnUse">
<stop stop-color="#884BD4"/>
<stop offset="1" stop-color="#884BD4" stop-opacity="0"/>
</linearGradient>
<radialGradient id="paint36_radial_6338_32284" cx="0" cy="0" r="1" gradientUnits="userSpaceOnUse" gradientTransform="translate(15.5252 22.4915) rotate(-2.22396) scale(2.71363 1.13157)">
<stop stop-color="#884BD4"/>
<stop offset="1" stop-color="#884BD4" stop-opacity="0"/>
</radialGradient>
<radialGradient id="paint37_radial_6338_32284" cx="0" cy="0" r="1" gradientUnits="userSpaceOnUse" gradientTransform="translate(14.2512 22.36) rotate(7.53483) scale(1.80285 0.75178)">
<stop stop-color="#884BD4"/>
<stop offset="1" stop-color="#884BD4" stop-opacity="0"/>
</radialGradient>
<radialGradient id="paint38_radial_6338_32284" cx="0" cy="0" r="1" gradientUnits="userSpaceOnUse" gradientTransform="translate(18.1309 22.705) rotate(58.8972) scale(1.3868 1.34846)">
<stop stop-color="#884BD4"/>
<stop offset="1" stop-color="#884BD4" stop-opacity="0"/>
</radialGradient>
<linearGradient id="paint39_linear_6338_32284" x1="15.9063" y1="5.0625" x2="15.9063" y2="14.9688" gradientUnits="userSpaceOnUse">
<stop stop-color="#63567E"/>
<stop offset="1" stop-color="#6C6695"/>
</linearGradient>
<radialGradient id="paint40_radial_6338_32284" cx="0" cy="0" r="1" gradientUnits="userSpaceOnUse" gradientTransform="translate(28.318 10.6909) rotate(-1.33642) scale(0.48964 6.68388)">
<stop stop-color="#62557A"/>
<stop offset="1" stop-color="#62557A" stop-opacity="0"/>
</radialGradient>
<linearGradient id="paint41_linear_6338_32284" x1="12.0036" y1="16.6739" x2="12.0036" y2="17.4502" gradientUnits="userSpaceOnUse">
<stop offset="0.320301" stop-color="#62557A" stop-opacity="0"/>
<stop offset="0.423766" stop-color="#62557A"/>
<stop offset="0.883131" stop-color="#62557A" stop-opacity="0.193762"/>
<stop offset="1" stop-color="#62557A" stop-opacity="0"/>
</linearGradient>
<linearGradient id="paint42_linear_6338_32284" x1="1.83102" y1="11.6951" x2="2.55899" y2="11.6951" gradientUnits="userSpaceOnUse">
<stop offset="0.288462" stop-color="#62557A"/>
<stop offset="0.720716" stop-color="#62557A" stop-opacity="0.193762"/>
<stop offset="1" stop-color="#62557A" stop-opacity="0"/>
</linearGradient>
<linearGradient id="paint43_linear_6338_32284" x1="15.9062" y1="18.3438" x2="15.9062" y2="17.9766" gradientUnits="userSpaceOnUse">
<stop offset="0.234043" stop-color="#736DA0"/>
<stop offset="0.648936" stop-color="#736DA0" stop-opacity="0.223404"/>
<stop offset="1" stop-color="#736DA0" stop-opacity="0"/>
</linearGradient>
<linearGradient id="paint44_linear_6338_32284" x1="29.893" y1="11.0302" x2="29.5359" y2="11.0302" gradientUnits="userSpaceOnUse">
<stop offset="0.272571" stop-color="#736DA0"/>
<stop offset="0.792317" stop-color="#736DA0" stop-opacity="0.223404"/>
<stop offset="1" stop-color="#736DA0" stop-opacity="0"/>
</linearGradient>
<radialGradient id="paint45_radial_6338_32284" cx="0" cy="0" r="1" gradientUnits="userSpaceOnUse" gradientTransform="translate(3.5414 10.2919) rotate(-90) scale(3.94749 0.438924)">
<stop stop-color="#736DA0"/>
<stop offset="1" stop-color="#736DA0" stop-opacity="0"/>
</radialGradient>
<radialGradient id="paint46_radial_6338_32284" cx="0" cy="0" r="1" gradientUnits="userSpaceOnUse" gradientTransform="translate(3.5414 15.6514) rotate(-90) scale(5.17402 0.37257)">
<stop offset="0.383361" stop-color="#736DA0"/>
<stop offset="1" stop-color="#736DA0" stop-opacity="0"/>
</radialGradient>
<radialGradient id="paint47_radial_6338_32284" cx="0" cy="0" r="1" gradientUnits="userSpaceOnUse" gradientTransform="translate(4.82427 7.21383) rotate(-18.1153) scale(2.67043 1.43175)">
<stop stop-color="#736DA0"/>
<stop offset="1" stop-color="#736DA0" stop-opacity="0"/>
</radialGradient>
<radialGradient id="paint48_radial_6338_32284" cx="0" cy="0" r="1" gradientUnits="userSpaceOnUse" gradientTransform="translate(26.8601 6.41219) rotate(-1.39394) scale(1.38753 0.355051)">
<stop stop-color="#736DA0"/>
<stop offset="1" stop-color="#736DA0" stop-opacity="0"/>
</radialGradient>
<radialGradient id="paint49_radial_6338_32284" cx="0" cy="0" r="1" gradientUnits="userSpaceOnUse" gradientTransform="translate(29.5021 16.828) rotate(180) scale(2.1294 4.46924)">
<stop offset="0.610489" stop-color="#6C6695"/>
<stop offset="1" stop-color="#6C6695" stop-opacity="0"/>
</radialGradient>
<radialGradient id="paint50_radial_6338_32284" cx="0" cy="0" r="1" gradientUnits="userSpaceOnUse" gradientTransform="translate(2.43907 16.828) scale(2.38574 5.00724)">
<stop offset="0.54103" stop-color="#6C6695"/>
<stop offset="1" stop-color="#6C6695" stop-opacity="0"/>
</radialGradient>
<radialGradient id="paint51_radial_6338_32284" cx="0" cy="0" r="1" gradientUnits="userSpaceOnUse" gradientTransform="translate(4.33738 16.2368) rotate(-37.6964) scale(1.14762)">
<stop offset="0.494792" stop-color="#62557A"/>
<stop offset="1" stop-color="#62557A" stop-opacity="0"/>
</radialGradient>
<radialGradient id="paint52_radial_6338_32284" cx="0" cy="0" r="1" gradientUnits="userSpaceOnUse" gradientTransform="translate(27.8274 16.2659) rotate(-124.795) scale(0.972178)">
<stop offset="0.614078" stop-color="#62557A"/>
<stop offset="1" stop-color="#62557A" stop-opacity="0"/>
</radialGradient>
<radialGradient id="paint53_radial_6338_32284" cx="0" cy="0" r="1" gradientUnits="userSpaceOnUse" gradientTransform="translate(28.5152 14.7006) scale(0.333844 2.00894)">
<stop stop-color="#62557A"/>
<stop offset="0.621455" stop-color="#62557A" stop-opacity="0.273237"/>
<stop offset="1" stop-color="#62557A" stop-opacity="0"/>
</radialGradient>
<linearGradient id="paint54_linear_6338_32284" x1="12.2188" y1="10.9375" x2="10.9609" y2="12.9375" gradientUnits="userSpaceOnUse">
<stop stop-color="#FF416D"/>
<stop offset="1" stop-color="#FF3A66"/>
</linearGradient>
<linearGradient id="paint55_linear_6338_32284" x1="10.9609" y1="10.9375" x2="10.9609" y2="11.236" gradientUnits="userSpaceOnUse">
<stop stop-color="#FD4843"/>
<stop offset="1" stop-color="#FD4843" stop-opacity="0"/>
</linearGradient>
<linearGradient id="paint56_linear_6338_32284" x1="7.94922" y1="12.2181" x2="8.244" y2="12.2181" gradientUnits="userSpaceOnUse">
<stop stop-color="#FD4843"/>
<stop offset="1" stop-color="#FD4843" stop-opacity="0"/>
</linearGradient>
<linearGradient id="paint57_linear_6338_32284" x1="8.2616" y1="11.3164" x2="8.36707" y2="11.457" gradientUnits="userSpaceOnUse">
<stop stop-color="#FD4843"/>
<stop offset="1" stop-color="#FD4843" stop-opacity="0"/>
</linearGradient>
<linearGradient id="paint58_linear_6338_32284" x1="10.9609" y1="12.9375" x2="10.9609" y2="12.6677" gradientUnits="userSpaceOnUse">
<stop offset="0.567708" stop-color="#FF4075"/>
<stop offset="1" stop-color="#FF4075" stop-opacity="0"/>
</linearGradient>
<linearGradient id="paint59_linear_6338_32284" x1="13.9727" y1="12.455" x2="13.7748" y2="12.455" gradientUnits="userSpaceOnUse">
<stop offset="0.567708" stop-color="#FF4075"/>
<stop offset="1" stop-color="#FF4075" stop-opacity="0"/>
</linearGradient>
<linearGradient id="paint60_linear_6338_32284" x1="13.9727" y1="11.3001" x2="13.5954" y2="11.5916" gradientUnits="userSpaceOnUse">
<stop offset="0.567708" stop-color="#FF4075"/>
<stop offset="1" stop-color="#FF4075" stop-opacity="0"/>
</linearGradient>
<linearGradient id="paint61_linear_6338_32284" x1="16.625" y1="7.0625" x2="15.9063" y2="9.0625" gradientUnits="userSpaceOnUse">
<stop stop-color="#4794D7"/>
<stop offset="1" stop-color="#4482CA"/>
</linearGradient>
<linearGradient id="paint62_linear_6338_32284" x1="15.9063" y1="7.0625" x2="15.9062" y2="7.29669" gradientUnits="userSpaceOnUse">
<stop stop-color="#4580C4"/>
<stop offset="1" stop-color="#4580C4" stop-opacity="0"/>
</linearGradient>
<linearGradient id="paint63_linear_6338_32284" x1="12.8945" y1="8.27773" x2="13.1528" y2="8.27773" gradientUnits="userSpaceOnUse">
<stop offset="0.552083" stop-color="#4580C4"/>
<stop offset="1" stop-color="#4580C4" stop-opacity="0"/>
</linearGradient>
<linearGradient id="paint64_linear_6338_32284" x1="13.1874" y1="7.25" x2="13.4764" y2="7.61328" gradientUnits="userSpaceOnUse">
<stop stop-color="#4580C4"/>
<stop offset="0.771469" stop-color="#4580C4" stop-opacity="0"/>
</linearGradient>
<linearGradient id="paint65_linear_6338_32284" x1="15.9063" y1="9.13323" x2="15.9063" y2="8.80304" gradientUnits="userSpaceOnUse">
<stop stop-color="#4C9CD9"/>
<stop offset="1" stop-color="#4C9CD9" stop-opacity="0"/>
</linearGradient>
<linearGradient id="paint66_linear_6338_32284" x1="18.9782" y1="8.60726" x2="18.6237" y2="8.60726" gradientUnits="userSpaceOnUse">
<stop stop-color="#4C9CD9"/>
<stop offset="1" stop-color="#4C9CD9" stop-opacity="0"/>
</linearGradient>
<linearGradient id="paint67_linear_6338_32284" x1="21.5625" y1="2.71875" x2="20.8672" y2="5.0625" gradientUnits="userSpaceOnUse">
<stop stop-color="#4EDC8E"/>
<stop offset="1" stop-color="#54C877"/>
</linearGradient>
<linearGradient id="paint68_linear_6338_32284" x1="20.8672" y1="2.97115" x2="20.8672" y2="3.31428" gradientUnits="userSpaceOnUse">
<stop stop-color="#3DB669"/>
<stop offset="1" stop-color="#3DB669" stop-opacity="0"/>
</linearGradient>
<linearGradient id="paint69_linear_6338_32284" x1="17.8555" y1="4.21048" x2="18.1439" y2="4.21048" gradientUnits="userSpaceOnUse">
<stop stop-color="#3DB669"/>
<stop offset="1" stop-color="#3DB669" stop-opacity="0"/>
</linearGradient>
<linearGradient id="paint70_linear_6338_32284" x1="18.2492" y1="3.27514" x2="18.4596" y2="3.56743" gradientUnits="userSpaceOnUse">
<stop stop-color="#3DB669"/>
<stop offset="0.666419" stop-color="#3DB669" stop-opacity="0.223739"/>
<stop offset="1" stop-color="#3DB669" stop-opacity="0"/>
</linearGradient>
<linearGradient id="paint71_linear_6338_32284" x1="20.8672" y1="5.32697" x2="20.8672" y2="4.8054" gradientUnits="userSpaceOnUse">
<stop stop-color="#59E79A"/>
<stop offset="1" stop-color="#59E79A" stop-opacity="0"/>
</linearGradient>
<linearGradient id="paint72_linear_6338_32284" x1="23.9542" y1="4.31201" x2="23.6797" y2="4.31201" gradientUnits="userSpaceOnUse">
<stop stop-color="#59E79A"/>
<stop offset="1" stop-color="#59E79A" stop-opacity="0"/>
</linearGradient>
<linearGradient id="paint73_linear_6338_32284" x1="24.0158" y1="3.50468" x2="23.5354" y2="3.90503" gradientUnits="userSpaceOnUse">
<stop stop-color="#59E79A"/>
<stop offset="1" stop-color="#59E79A" stop-opacity="0"/>
</linearGradient>
<linearGradient id="paint74_linear_6338_32284" x1="18.4062" y1="22.3438" x2="14.9062" y2="25.9922" gradientUnits="userSpaceOnUse">
<stop stop-color="#DECBF4"/>
<stop offset="1" stop-color="#CCBFDC"/>
</linearGradient>
</defs>
</svg>
